<svg width="1612" height="2926" viewBox="0 0 1612 2926" fill="none" xmlns="http://www.w3.org/2000/svg">
<path d="M192.867 1680.95C244.23 1680.95 285.867 1639.32 285.867 1587.95C285.867 1536.59 244.23 1494.95 192.867 1494.95C141.505 1494.95 99.8672 1536.59 99.8672 1587.95C99.8672 1639.32 141.505 1680.95 192.867 1680.95Z" stroke="#80DEEA" stroke-width="5" stroke-dasharray="16 12"/>
<path d="M116.367 1618.95C138.182 1618.95 155.867 1601.27 155.867 1579.45C155.867 1557.64 138.182 1539.95 116.367 1539.95C94.5519 1539.95 76.8672 1557.64 76.8672 1579.45C76.8672 1601.27 94.5519 1618.95 116.367 1618.95Z" stroke="#80DEEA" stroke-width="5" stroke-dasharray="16 12"/>
<path d="M1430.56 2445C1529.11 2445 1609 2364.64 1609 2265.5C1609 2166.36 1529.11 2086 1430.56 2086C1332.02 2086 1252.13 2166.36 1252.13 2265.5C1252.13 2364.64 1332.02 2445 1430.56 2445Z" stroke="#80DEEA" stroke-width="5" stroke-dasharray="16 12"/>
<path d="M1283.79 2325.33C1325.64 2325.33 1359.57 2291.2 1359.57 2249.09C1359.57 2206.99 1325.64 2172.85 1283.79 2172.85C1241.93 2172.85 1208 2206.99 1208 2249.09C1208 2291.2 1241.93 2325.33 1283.79 2325.33Z" stroke="#80DEEA" stroke-width="5" stroke-dasharray="16 12"/>
<path fill-rule="evenodd" clip-rule="evenodd" d="M508.367 1479.95C508.367 1476.64 505.681 1473.95 502.367 1473.95C499.053 1473.95 496.367 1476.64 496.367 1479.95V1496.95H479.367C476.053 1496.95 473.367 1499.64 473.367 1502.95C473.367 1506.27 476.053 1508.95 479.367 1508.95H496.367V1525.95C496.367 1529.27 499.053 1531.95 502.367 1531.95C505.681 1531.95 508.367 1529.27 508.367 1525.95V1508.95H526.033C529.346 1508.95 532.033 1506.27 532.033 1502.95C532.033 1499.64 529.346 1496.95 526.033 1496.95H508.367V1479.95Z" fill="#012147" fill-opacity="0.2"/>
<path fill-rule="evenodd" clip-rule="evenodd" d="M170.367 1137.95C170.367 1134.64 167.681 1131.95 164.367 1131.95C161.053 1131.95 158.367 1134.64 158.367 1137.95V1154.95H141.367C138.053 1154.95 135.367 1157.64 135.367 1160.95C135.367 1164.27 138.053 1166.95 141.367 1166.95H158.367V1183.95C158.367 1187.27 161.053 1189.95 164.367 1189.95C167.681 1189.95 170.367 1187.27 170.367 1183.95V1166.95H188.033C191.346 1166.95 194.033 1164.27 194.033 1160.95C194.033 1157.64 191.346 1154.95 188.033 1154.95H170.367V1137.95Z" fill="#012147" fill-opacity="0.1"/>
<path fill-rule="evenodd" clip-rule="evenodd" d="M1251.87 1997.95C1251.87 1995.74 1250.08 1993.95 1247.87 1993.95C1245.66 1993.95 1243.87 1995.74 1243.87 1997.95V2003.45H1239.05C1236.85 2003.45 1235.05 2005.24 1235.05 2007.45C1235.05 2009.66 1236.85 2011.45 1239.05 2011.45H1243.87V2015.95C1243.87 2018.16 1245.66 2019.95 1247.87 2019.95C1250.08 2019.95 1251.87 2018.16 1251.87 2015.95V2011.45H1256.55C1258.76 2011.45 1260.55 2009.66 1260.55 2007.45C1260.55 2005.24 1258.76 2003.45 1256.55 2003.45H1251.87V1997.95Z" fill="#012147" fill-opacity="0.2"/>
<path d="M1063.87 1367.95L1247.87 1553.95" stroke="#012147" stroke-opacity="0.3" stroke-width="9"/>
<path d="M931.867 1577.95L953.867 1592.95L977.867 1577.95L1002.87 1592.95L1026.87 1577.95L1050.87 1592.95L1074.87 1577.95L1099.87 1592.95L1121.87 1577.95" stroke="#012147" stroke-opacity="0.3" stroke-width="6"/>
<path d="M168.867 2071.13L194 2079.92L213.3 2059.22L241.33 2067.24L260.63 2046.54L287.695 2054.82L306.995 2034.12L335.025 2042.14L352.393 2021.95" stroke="#012147" stroke-opacity="0.1" stroke-width="6"/>
<path d="M209.867 1273.95L231.867 1288.95L255.867 1273.95L280.867 1288.95L304.867 1273.95L328.867 1288.95L352.867 1273.95L377.867 1288.95L399.867 1273.95" stroke="#012147" stroke-opacity="0.1" stroke-width="6"/>
<path d="M1334.87 1850.95C1334.87 1853.16 1333.08 1854.95 1330.87 1854.95C1328.66 1854.95 1326.87 1853.16 1326.87 1850.95C1326.87 1848.74 1328.66 1846.95 1330.87 1846.95C1333.08 1846.95 1334.87 1848.74 1334.87 1850.95Z" stroke="#012147" stroke-width="10"/>
<path d="M1265.87 1146.95C1265.87 1149.16 1264.08 1150.95 1261.87 1150.95C1259.66 1150.95 1257.87 1149.16 1257.87 1146.95C1257.87 1144.74 1259.66 1142.95 1261.87 1142.95C1264.08 1142.95 1265.87 1144.74 1265.87 1146.95Z" stroke="#012147" stroke-width="10"/>
<path d="M156.867 2217.45C156.867 2224.91 150.823 2230.95 143.367 2230.95C135.911 2230.95 129.867 2224.91 129.867 2217.45C129.867 2210 135.911 2203.95 143.367 2203.95C150.823 2203.95 156.867 2210 156.867 2217.45Z" stroke="#012147" stroke-width="10"/>
<path d="M1316.87 853.454C1316.87 864.776 1307.69 873.954 1296.37 873.954C1285.05 873.954 1275.87 864.776 1275.87 853.454C1275.87 842.132 1285.05 832.954 1296.37 832.954C1307.69 832.954 1316.87 842.132 1316.87 853.454Z" stroke="#012147" stroke-width="10"/>
<path d="M0.867188 2925.95H382.867L0.867188 2543.95L0.867188 2925.95Z"/>
<path d="M0.867188 379.954L429.867 803.954L0.867188 1207.95V379.954Z" fill="#80DEEA"/>
<path d="M835.867 713.954L1608.87 0V698.954L835.867 713.954Z" fill="#80DEEA"/>
<path d="M1255.87 709.954L1322.34 595.954L1375.37 740.954L1255.87 709.954Z" fill="white"/>
<path d="M1316.49 683.068L1273.3 667.724L1240.25 703.496L1192.09 689.484L1159.04 725.256L1112.54 710.799L1079.49 746.571L1031.33 732.559L1001.6 767.443" stroke="#012147" stroke-opacity="0.2" stroke-width="6"/>
<path d="M183.867 506.454C183.867 511.149 180.062 514.954 175.367 514.954C170.673 514.954 166.867 511.149 166.867 506.454C166.867 501.76 170.673 497.954 175.367 497.954C180.062 497.954 183.867 501.76 183.867 506.454Z" stroke="#012147" stroke-opacity="0.2" stroke-width="10"/>
<path d="M134.367 740.954V766.954" stroke="#012147" stroke-width="12" stroke-linecap="round"/>
<path d="M147.398 754.454H121.148" stroke="#012147" stroke-width="12" stroke-linecap="round"/>
<path d="M1222 315L922.986 594.912" stroke="#012147" stroke-width="6"/>
<path d="M922.986 594.912L813.867 696.954" stroke="#012147" stroke-opacity="0.651891" stroke-width="4"/>
</svg>
